
<svg xmlns="http://www.w3.org/2000/svg" version="1.1" xmlns:xlink="http://www.w3.org/1999/xlink" preserveAspectRatio="none" x="0px" y="0px" width="128px" height="128px" viewBox="0 0 128 128">
<defs>
<g id="Layer0_0_FILL">
<path fill="#000000" stroke="none" d="
M 64 70.4
Q 68.45 70.1 72.4 65.9 67.05 67.95 64 67.9 61 67.95 55.65 65.9 59.6 70.1 64 70.4
M 10.3 39.15
Q 9.8 44.15 20 48.7 14.3 43.95 14.9 41.3
L 10.3 39.15
M 16.4 19.85
Q 15.3 14.85 15.5 10.1 5.7 16.1 5.9 34.9 3.95 33.85 2.95 31.8 1.1 36.7 2.2 44.55 2.2 44.6 2.2 44.65 2.2 44.9 2.25 45.25 2.4 46.2 2.6 47.1 4.45 54.6 13.15 58.15 9.8 60.75 14.9 62.6 19.95 64.45 22.5 64.75 17.4 67.85 28.75 71.5 37.15 73.75 45.55 73.5
L 44.4 71.7
Q 31.55 71.5 25 66.8 28.9 63.8 23.5 62.9 12.95 60.6 15.75 58.3
L 12.65 56.05
Q 6.85 51.8 5.15 47.45 3 40.3 3.5 34.75 5 37.3 7.95 38.45 6.35 24 13.35 14.65 14.75 23.8 17.45 28.6 20.9 34.7 35.3 42.45 41.95 45.95 44.55 54.65 45.6 56.3 46.4 54.65 45.4 41.85 34.9 37.65 18.95 31.35 16.4 19.85
M 84.65 74.65
L 82.3 74.65
Q 79.25 84.85 74.2 89.9 69.1 94.95 64 95.65 58.9 94.95 53.85 89.9 48.75 84.85 45.75 74.65
L 43.35 74.65
Q 44.05 79.3 47.8 85.55 51.5 91.75 57.15 96.15 54.5 103.65 50.4 107.25 56.95 115.95 64 118.65 71.05 115.95 77.65 107.25 73.55 103.65 70.9 96.15 76.55 91.75 80.25 85.55 83.95 79.3 84.65 74.65
M 63 99.9
Q 63.7 100.7 64 100.75 64.35 100.7 65 99.9 68.3 96.25 69.4 99 70.05 100.8 70.85 102.6 66.95 106.7 64 106.75 61.05 106.7 57.15 102.6 58 100.8 58.65 99 59.75 96.25 63 99.9
M 64 109.9
Q 66.05 109.7 71.5 103.8 72.65 106 74.15 108.15 65.85 114.8 64 115 62.15 114.8 53.9 108.15 55.4 106 56.55 103.8 61.95 109.7 64 109.9
M 117.75 39.15
L 113.15 41.3
Q 113.75 43.95 108.05 48.7 118.25 44.15 117.75 39.15
M 82.85 45.25
Q 83.7 42.55 85.5 41.2 84.55 38.05 83.1 35.85
L 90 32.65 92.9 26.25
Q 86.15 28.25 82.15 30.45 81 31.1 79.65 31.9 72.95 26.5 64 25.9 55.1 26.5 48.35 31.9 47.05 31.1 45.9 30.45 41.85 28.25 35.15 26.25
L 38 32.65 44.9 35.85
Q 43.45 38.05 42.5 41.2 44.35 42.55 45.15 45.25 46.05 49.05 49.3 52.4 52.7 55.95 56.7 56.9 58.4 57.3 59.75 57.15 62.3 57.85 62.6 59.95 62.95 62.7 64 63 65.05 62.7 65.45 59.95 65.75 57.85 68.25 57.15 69.65 57.3 71.35 56.9 75.3 55.95 78.7 52.4 82 49.05 82.85 45.25
M 56 36.7
Q 53.5 35.05 51.35 33.75 56.95 29 64 28.9 71.1 29 76.65 33.75 74.5 35.05 72 36.7 66.05 40.1 64 40.15 62 40.1 56 36.7
M 47.7 45.25
Q 46.95 42.35 48.5 40.85 50 39.4 52.9 40.25 54.75 40.75 56.45 42 54.95 42.25 53.85 43.35 52.45 44.75 52.45 46.7 52.45 48.65 53.85 50 55.25 51.4 57.2 51.4 59.15 51.4 60.5 50 61.15 49.35 61.5 48.6 61.6 48.95 61.7 49.3 62.45 52.2 60.9 53.65 59.4 55.15 56.5 54.3 53.6 53.5 51.05 50.85 48.45 48.15 47.7 45.25
M 54.25 46.7
Q 54.25 45.45 55.1 44.6 56 43.75 57.2 43.75 58.4 43.75 59.25 44.6 60.15 45.45 60.15 46.7 60.15 47.9 59.25 48.75 58.4 49.6 57.2 49.6 56 49.6 55.1 48.75 54.25 47.9 54.25 46.7
M 66.3 49.3
Q 66.4 48.95 66.5 48.6 66.85 49.35 67.5 50 68.9 51.4 70.85 51.4 72.8 51.4 74.2 50 75.55 48.65 75.55 46.7 75.55 44.75 74.2 43.35 73.05 42.25 71.55 42 73.25 40.75 75.1 40.25 78 39.4 79.55 40.85 81.05 42.35 80.3 45.25 79.55 48.15 77 50.85 74.4 53.5 71.5 54.3 68.65 55.15 67.1 53.65 65.6 52.2 66.3 49.3
M 67.9 46.7
Q 67.9 45.45 68.75 44.6 69.6 43.75 70.85 43.75 72.05 43.75 72.9 44.6 73.75 45.45 73.75 46.7 73.75 47.9 72.9 48.75 72.05 49.6 70.85 49.6 69.6 49.6 68.75 48.75 67.9 47.9 67.9 46.7
M 125.05 31.8
Q 124.05 33.85 122.15 34.9 122.35 16.1 112.55 10.1 112.75 14.85 111.6 19.85 109.05 31.35 93.15 37.65 82.65 41.85 81.65 54.65 82.4 56.3 83.5 54.65 86.1 45.95 92.7 42.45 107.15 34.7 110.55 28.6 113.25 23.8 114.65 14.65 121.65 24 120.05 38.45 123 37.3 124.5 34.75 125.05 40.3 122.9 47.45 121.2 51.8 115.4 56.05
L 112.25 58.3
Q 115.05 60.6 104.5 62.9 99.15 63.8 103 66.8 96.5 71.5 83.6 71.7
L 82.45 73.5
Q 90.9 73.75 99.25 71.5 110.65 67.85 105.5 64.75 108.1 64.45 113.15 62.6 118.2 60.75 114.9 58.15 123.6 54.6 125.4 47.1 125.65 46.2 125.75 45.25 125.8 44.9 125.8 44.65 125.85 44.6 125.85 44.55 126.9 36.7 125.05 31.8 Z"/>
</g>
</defs>

<g transform="matrix( 1, 0, 0, 1, 0,0) ">
<use xlink:href="#Layer0_0_FILL"/>
</g>
</svg>
