
<svg xmlns="http://www.w3.org/2000/svg" version="1.1" xmlns:xlink="http://www.w3.org/1999/xlink" preserveAspectRatio="none" x="0px" y="0px" width="256px" height="256px" viewBox="0 0 256 256">
<defs>
<g id="Layer3_0_FILL">
<path fill="#FFFFFF" stroke="none" d="
M 183 52
L 170 52 170 167.05
Q 170 184.4 157.75 196.65 145.4 209 128 209 110.6 209 98.35 196.65 86 184.4 86 167.05
L 86 52 73 52 73 167.05
Q 73 189.8 89.15 205.85 105.2 222 128 222 150.75 222 166.95 205.85 183 189.8 183 167.05
L 183 52
M 111 52
L 98 52 98 167.05
Q 98 179.4 106.85 188.15 115.6 197 128 197 140.45 197 149.25 188.15 158 179.4 158 167.05
L 158 52 145 52 145 167.05
Q 145 174 140.05 179 135.05 184 128 184 121 184 116 179 111 174 111 167.05
L 111 52 Z"/>
</g>
</defs>

<g transform="matrix( 1, 0, 0, 1, 0,0) ">
<use xlink:href="#Layer3_0_FILL"/>
</g>
</svg>
