
<svg xmlns="http://www.w3.org/2000/svg" version="1.1" xmlns:xlink="http://www.w3.org/1999/xlink" preserveAspectRatio="none" x="0px" y="0px" width="256px" height="256px" viewBox="0 0 256 256">
<defs>
<g id="Layer2_0_FILL">
<path fill="#FFFFFF" stroke="none" d="
M 171 150.75 L 171 33.25 155.5 33.25 155.5 150.75 Q 155.5 162.2 147.45 170.2 139.45 178.25 128 178.25 116.6 178.25 108.55 170.2 100.5 162.2 100.5 150.75
L 100.5 33.25 85 33.25 85 150.75 Q 85 168.65 97.55 181.15 110.15 193.75 128 193.75 145.9 193.75 158.4 181.15 171 168.65 171 150.75
M 200 33.25 L 184 33.25 184 150.8 Q 184 174.1 167.6 190.4 151.3 206.8 128 206.8 104.75 206.8 88.3 190.4 72 174.1 72 150.8 L 72 33.25 56 33.25 56 150.75
Q 56 180.55 77.05 201.6 98.2 222.75 128 222.75 157.8 222.75 178.9 201.6 200 180.55 200 150.75 L 200 33.25 Z"/>
</g>
</defs>

<g transform="matrix( 1, 0, 0, 1, 0,0) ">
<use xlink:href="#Layer2_0_FILL"/>
</g>
</svg>
